 <svg xmlns="http://www.w3.org/2000/svg" viewBox="0 0 200 300" width="200" height="300" fill="#89CFF0">
  <!-- Jug body -->
  <path d="M50 100C150 150 150 50 150 100V250C150 275 125 300 100 300C75 300 50 275 50 250V100Z" fill="#89CFF0" />
  <path d="M50 100C50 50 160 100 150 80C160 50 150 150 50 100" fill="green"/>
    <path d="M60 150C0 200 0 250 70 250C10 250 10 200 60 150" fill="#89CFF0" />

  <!-- Jug handle -->
  <!--<path d="M60 100C60 70 80 50 100 50C120 50 140 70 140 100" fill="#B2D4E5" />-->
</svg>
